<svg xmlns="http://www.w3.org/2000/svg" xmlns:xlink="http://www.w3.org/1999/xlink" viewBox="0 0 256 114"><defs><style>.a{clip-path:url(#b);}.b{fill:#00b4a6;}.c{fill:#008bd0;}.d{fill:#00a09d;}.e{fill:#0079c1;}</style><clipPath id="b"><rect width="256" height="114"/></clipPath></defs><g id="a" class="a"><g transform="translate(26.63 10.086)"><path class="b" d="M101.586,30.122V19.236H73.53V59.964h28.056V49.079H85.243V44.368h14V35h-14V30.122Z" transform="translate(22.104 5.195)"/><path class="b" d="M147.608,19.236V34.158H135.76V19.236H123.633V59.964H135.76V45.043h11.849v14.92h12.125V19.236Z" transform="translate(37.657 5.195)"/><path class="b" d="M126.883,30.122V19.236H98.826V59.964h28.057V49.079H110.539V30.122Z" transform="translate(29.956 5.195)"/><path class="b" d="M48.311,19.147,35.169,31.942H66.012v38.8L79.149,57.908V19.147Z" transform="translate(10.196 5.167)"/><g transform="translate(2.322 2.5)"><path class="c" d="M70.195,79.357l.008-.005-.008,0V43.089H39.128L26.244,55.7H57.186V71.981l-.048-.028a29.518,29.518,0,1,1-1.406-54.327l9.95-9.715a42.591,42.591,0,1,0,2.783,72.652Z" transform="translate(-2.322 -2.5)"/><path class="d" d="M79.149,19.147H48.311L35.169,31.942H66.012Z" transform="translate(7.874 2.667)"/><path class="e" d="M64.528,33.474H33.461L20.577,46.085H51.52Z" transform="translate(3.345 7.115)"/></g></g></g></svg>