<?xml version="1.0" encoding="utf-8"?>
<!-- Generator: Adobe Illustrator 17.0.0, SVG Export Plug-In . SVG Version: 6.00 Build 0)  -->
<!DOCTYPE svg PUBLIC "-//W3C//DTD SVG 1.1//EN" "http://www.w3.org/Graphics/SVG/1.1/DTD/svg11.dtd">
<svg version="1.1" id="Layer_1" xmlns="http://www.w3.org/2000/svg" xmlns:xlink="http://www.w3.org/1999/xlink" x="0px" y="0px"
	 width="155px" height="70px" viewBox="-0.5 0 155 70" enable-background="new -0.5 0 155 70" xml:space="preserve">
<g>
	<polygon fill="#00B4A6" points="94.94,27.543 94.94,19.236 73.53,19.236 73.53,50.316 94.94,50.316 94.94,42.01 82.468,42.01 
		82.468,38.415 93.153,38.415 93.153,31.262 82.468,31.262 82.468,27.543 	"/>
	<polygon fill="#00B4A6" points="141.929,19.236 141.929,30.623 132.887,30.623 132.887,19.236 123.633,19.236 123.633,50.316 
		132.887,50.316 132.887,38.93 141.929,38.93 141.929,50.316 151.182,50.316 151.182,19.236 	"/>
	<polygon fill="#00B4A6" points="120.237,27.543 120.237,19.236 98.826,19.236 98.826,50.316 120.237,50.316 120.237,42.01 
		107.764,42.01 107.764,27.543 	"/>
	<polygon fill="#00B4A6" points="45.198,19.147 35.169,28.911 58.706,28.911 58.706,58.522 68.731,48.726 68.731,19.147 	"/>
	<g>
		<path fill="#008BD0" d="M54.117,61.151c0.002-0.002,0.004-0.003,0.006-0.004l-0.006-0.003v-27.67H30.409l-9.832,9.624H44.19
			v12.424l-0.037-0.021c-2.844,1.297-6.001,2.025-9.33,2.025c-12.441,0-22.526-10.085-22.526-22.526s10.085-22.526,22.526-22.526
			c2.916,0,5.699,0.56,8.257,1.569l7.593-7.414C45.982,4.003,40.579,2.5,34.822,2.5c-17.95,0-32.5,14.551-32.5,32.5
			c0,17.95,14.55,32.5,32.5,32.5c6.648,0,12.826-2.003,17.975-5.429L54.117,61.151z"/>
		<polygon fill="#00A09D" points="68.731,19.147 45.198,19.147 35.169,28.911 58.706,28.911 		"/>
		<polygon fill="#0079C1" points="54.117,33.474 30.409,33.474 20.577,43.098 44.19,43.098 		"/>
	</g>
</g>
</svg>
